<svg width="780" height="380" viewBox="0 0 780 380" xmlns="http://www.w3.org/2000/svg">
  <defs>
    <marker id="kp" viewBox="0 0 10 10" refX="8" refY="5" markerWidth="5" markerHeight="5" orient="auto-start-reverse">
      <path d="M2 1L8 5L2 9" fill="none" stroke="#C49020" stroke-width="1.5" stroke-linecap="round" stroke-linejoin="round"/>
    </marker>
    <marker id="kc" viewBox="0 0 10 10" refX="8" refY="5" markerWidth="5" markerHeight="5" orient="auto-start-reverse">
      <path d="M2 1L8 5L2 9" fill="none" stroke="#C0522A" stroke-width="1.5" stroke-linecap="round" stroke-linejoin="round"/>
    </marker>
  </defs>

  <style>
    text { font-family: Arial, sans-serif; }
  </style>

  <rect width="780" height="380" fill="#ffffff"/>

  <!-- Title -->
  <text x="390" y="26" font-size="15" font-weight="700" fill="#1a1a1a" text-anchor="middle">JobTrackr — Kafka Event Flow</text>
  <text x="390" y="44" font-size="11" fill="#999" text-anchor="middle">Which services produce and consume each topic · Local: Apache Kafka · Prod: Upstash Kafka</text>

  <!-- Column headers -->
  <text x="88" y="68" font-size="11" font-weight="600" fill="#888" text-anchor="middle">Producers</text>
  <text x="390" y="68" font-size="11" font-weight="600" fill="#888" text-anchor="middle">Kafka Topics</text>
  <text x="672" y="68" font-size="11" font-weight="600" fill="#888" text-anchor="middle">Consumers</text>

  <!-- Divider lines under header -->
  <line x1="24" y1="74" x2="756" y2="74" stroke="#f0f0f0" stroke-width="1"/>

  <!-- PRODUCERS -->
  <rect x="14" y="84" width="148" height="52" rx="8" fill="#E4EEF9" stroke="#2B6CB0" stroke-width="0.8"/>
  <text x="88" y="106" font-size="12" font-weight="600" fill="#1A4A80" text-anchor="middle">Application Svc</text>
  <text x="88" y="122" font-size="10" fill="#2B5F9E" text-anchor="middle">:8082</text>

  <rect x="14" y="164" width="148" height="52" rx="8" fill="#E4EEF9" stroke="#2B6CB0" stroke-width="0.8"/>
  <text x="88" y="186" font-size="12" font-weight="600" fill="#1A4A80" text-anchor="middle">Reminder Svc</text>
  <text x="88" y="202" font-size="10" fill="#2B5F9E" text-anchor="middle">:8083</text>

  <rect x="14" y="244" width="148" height="52" rx="8" fill="#E4EEF9" stroke="#2B6CB0" stroke-width="0.8"/>
  <text x="88" y="266" font-size="12" font-weight="600" fill="#1A4A80" text-anchor="middle">Document Svc</text>
  <text x="88" y="282" font-size="10" fill="#2B5F9E" text-anchor="middle">:8084</text>

  <rect x="14" y="318" width="148" height="44" rx="8" fill="#E4EEF9" stroke="#2B6CB0" stroke-width="0.8"/>
  <text x="88" y="338" font-size="12" font-weight="600" fill="#1A4A80" text-anchor="middle">User Svc</text>
  <text x="88" y="354" font-size="10" fill="#2B5F9E" text-anchor="middle">:8081</text>

  <!-- KAFKA TOPICS -->
  <rect x="218" y="84" width="344" height="34" rx="6" fill="#FDF3DC" stroke="#C49020" stroke-width="0.8"/>
  <text x="390" y="105" font-size="11" font-weight="600" fill="#7A5C10" text-anchor="middle">application.created</text>

  <rect x="218" y="130" width="344" height="34" rx="6" fill="#FDF3DC" stroke="#C49020" stroke-width="0.8"/>
  <text x="390" y="151" font-size="11" font-weight="600" fill="#7A5C10" text-anchor="middle">application.status.updated</text>

  <rect x="218" y="176" width="344" height="34" rx="6" fill="#FDF3DC" stroke="#C49020" stroke-width="0.8"/>
  <text x="390" y="197" font-size="11" font-weight="600" fill="#7A5C10" text-anchor="middle">application.deleted</text>

  <rect x="218" y="222" width="344" height="34" rx="6" fill="#FDF3DC" stroke="#C49020" stroke-width="0.8"/>
  <text x="390" y="243" font-size="11" font-weight="600" fill="#7A5C10" text-anchor="middle">reminder.triggered</text>

  <rect x="218" y="268" width="344" height="34" rx="6" fill="#FDF3DC" stroke="#C49020" stroke-width="0.8"/>
  <text x="390" y="289" font-size="11" font-weight="600" fill="#7A5C10" text-anchor="middle">document.uploaded</text>

  <rect x="218" y="314" width="344" height="34" rx="6" fill="#FDF3DC" stroke="#C49020" stroke-width="0.8"/>
  <text x="390" y="335" font-size="11" font-weight="600" fill="#7A5C10" text-anchor="middle">user.registered</text>

  <!-- CONSUMERS -->
  <rect x="610" y="110" width="156" height="52" rx="8" fill="#FBE9E3" stroke="#C0522A" stroke-width="0.8"/>
  <text x="688" y="132" font-size="12" font-weight="600" fill="#7A2E10" text-anchor="middle">Analytics Svc</text>
  <text x="688" y="148" font-size="10" fill="#993C1D" text-anchor="middle">:8087</text>

  <rect x="610" y="220" width="156" height="52" rx="8" fill="#FBE9E3" stroke="#C0522A" stroke-width="0.8"/>
  <text x="688" y="242" font-size="12" font-weight="600" fill="#7A2E10" text-anchor="middle">Notification Svc</text>
  <text x="688" y="258" font-size="10" fill="#993C1D" text-anchor="middle">:8086</text>

  <!-- Producer to topic arrows (amber) -->
  <line x1="162" y1="101" x2="218" y2="101" stroke="#C49020" stroke-width="0.8" marker-end="url(#kp)"/>
  <line x1="162" y1="101" x2="218" y2="147" stroke="#C49020" stroke-width="0.8" marker-end="url(#kp)"/>
  <line x1="162" y1="101" x2="218" y2="193" stroke="#C49020" stroke-width="0.8" marker-end="url(#kp)"/>
  <line x1="162" y1="190" x2="218" y2="239" stroke="#C49020" stroke-width="0.8" marker-end="url(#kp)"/>
  <line x1="162" y1="270" x2="218" y2="285" stroke="#C49020" stroke-width="0.8" marker-end="url(#kp)"/>
  <line x1="162" y1="340" x2="218" y2="331" stroke="#C49020" stroke-width="0.8" marker-end="url(#kp)"/>

  <!-- Topic to consumer arrows (coral) -->
  <line x1="562" y1="101" x2="610" y2="129" stroke="#C0522A" stroke-width="0.8" marker-end="url(#kc)"/>
  <line x1="562" y1="147" x2="610" y2="136" stroke="#C0522A" stroke-width="0.8" marker-end="url(#kc)"/>
  <line x1="562" y1="193" x2="610" y2="143" stroke="#C0522A" stroke-width="0.8" marker-end="url(#kc)"/>
  <line x1="562" y1="147" x2="610" y2="238" stroke="#C0522A" stroke-width="0.8" marker-end="url(#kc)"/>
  <line x1="562" y1="239" x2="610" y2="245" stroke="#C0522A" stroke-width="0.8" marker-end="url(#kc)"/>
  <line x1="562" y1="331" x2="610" y2="258" stroke="#C0522A" stroke-width="0.8" marker-end="url(#kc)"/>

  <!-- Legend -->
  <line x1="14" y1="368" x2="44" y2="368" stroke="#C49020" stroke-width="1" marker-end="url(#kp)"/>
  <text x="50" y="372" font-size="10" fill="#999">Publishes to topic</text>
  <line x1="200" y1="368" x2="230" y2="368" stroke="#C0522A" stroke-width="1" marker-end="url(#kc)"/>
  <text x="236" y="372" font-size="10" fill="#999">Consumes from topic</text>
</svg>
